<?xml version="1.0" encoding="UTF-8" standalone="no"?>
<!-- Created with Inkscape (http://www.inkscape.org/) -->

<svg
   width="3314.2573"
   height="950"
   viewBox="0 0 876.89722 251.35417"
   version="1.1"
   id="svg5"
   inkscape:export-filename="/Users/johanforsell/Developer/Cocktails/cocktailwithtext.png"
   inkscape:export-xdpi="96"
   inkscape:export-ydpi="96"
   inkscape:version="1.1.1 (c3084ef, 2021-09-22)"
   sodipodi:docname="cocktailwithtext.svg"
   xmlns:inkscape="http://www.inkscape.org/namespaces/inkscape"
   xmlns:sodipodi="http://sodipodi.sourceforge.net/DTD/sodipodi-0.dtd"
   xmlns="http://www.w3.org/2000/svg"
   xmlns:svg="http://www.w3.org/2000/svg">
  <sodipodi:namedview
     id="namedview7"
     pagecolor="#ffffff"
     bordercolor="#666666"
     borderopacity="1.0"
     inkscape:pageshadow="2"
     inkscape:pageopacity="0.0"
     inkscape:pagecheckerboard="0"
     inkscape:document-units="mm"
     showgrid="false"
     units="px"
     inkscape:zoom="0.097214331"
     inkscape:cx="1969.8742"
     inkscape:cy="1815.5759"
     inkscape:window-width="1654"
     inkscape:window-height="1081"
     inkscape:window-x="1296"
     inkscape:window-y="118"
     inkscape:window-maximized="0"
     inkscape:current-layer="layer1"
     height="900px" />
  <defs
     id="defs2" />
  <g
     inkscape:label="Layer 1"
     inkscape:groupmode="layer"
     id="layer1"
     transform="translate(-58.497333,-17.699326)">
    <path
       style="opacity:1;fill:#f896ff;fill-opacity:1;stroke:none;stroke-width:0.452701;stroke-opacity:1"
       d="m 116.5724,248.96857 c -2.84198,-1.14831 -3.87231,-5.60926 -1.84101,-7.97079 0.60792,-0.70675 5.42619,-3.43661 11.43071,-6.47625 l 10.3798,-5.25446 0.11798,-19.12664 c 0.0997,-16.14213 0.0193,-19.12663 -0.51523,-19.12663 -1.27672,0 -8.75595,-2.3668 -12.21759,-3.86625 -11.03275,-4.779 -21.78458,-15.0946 -27.347925,-26.23838 -3.233894,-6.47769 -5.456645,-14.89253 -5.58515,-21.14409 -0.05873,-2.8575 0.05398,-3.34081 0.947897,-4.06465 0.558013,-0.45187 1.603141,-0.82157 2.322513,-0.82157 2.08774,0 2.99606,1.30964 3.34725,4.8262 1.73901,17.41333 11.221525,31.90859 25.956365,39.67762 7.84257,4.13506 14.61546,5.79539 23.61227,5.78846 14.40268,-0.0131 26.46644,-5.3006 36.44525,-15.97969 8.47449,-9.06924 12.87968,-20.27289 12.8932,-32.79127 0.007,-8.36158 -1.27236,-13.90423 -5.3329,-23.06726 -6.51419,-14.699858 -7.75998,-31.544756 -3.42065,-46.252705 0.64166,-2.174967 1.26986,-4.313946 1.39599,-4.753319 0.21616,-0.752817 -0.57377,-0.791941 -13.71022,-0.679061 l -13.93953,0.119719 -2.16223,10.412137 c -1.18925,5.726655 -2.17285,10.729041 -2.18584,11.116428 -0.021,0.627446 0.40866,0.613898 3.93749,-0.124094 2.81143,-0.587906 5.45039,-0.792319 9.09216,-0.704304 l 5.13106,0.124094 1.29566,1.45128 c 1.42807,1.599524 1.49256,1.88882 2.28306,10.241185 0.52082,5.502605 0.50467,5.85149 -0.30777,6.64879 -1.58,1.5506 -3.16986,1.59831 -4.62922,0.13897 -1.19862,-1.198592 -1.35119,-1.736221 -1.87622,-6.610391 l -0.57153,-5.305642 -3.22806,0.0031 c -4.03835,0.0031 -11.3819,1.692988 -12.88661,2.963943 -0.0836,0.07047 -2.54084,11.74925 -5.46065,25.95266 -3.91323,19.0359 -5.52805,26.06668 -6.14291,26.74611 -1.70919,1.88863 -5.67357,0.61506 -5.67357,-1.82265 0,-0.5135 2.13902,-11.33626 4.75337,-24.05059 2.61436,-12.71433 4.75336,-23.154327 4.75336,-23.200029 0,-0.04564 -1.68411,0.480233 -3.74245,1.16867 -5.35551,1.791295 -9.64885,2.349601 -15.95005,2.074142 -2.98783,-0.130657 -5.70876,-0.308943 -6.04651,-0.396278 -0.439,-0.113451 -0.84181,0.938284 -1.41284,3.689165 -1.22395,5.89635 -2.6307,10.56278 -4.62465,15.34071 -2.96188,7.09735 -3.9413,10.27271 -4.49129,14.56138 -2.21265,17.25329 9.4752,33.91499 26.9874,38.47211 5.00346,1.302 12.64915,1.3024 17.65536,8.8e-4 15.93914,-4.14386 26.93571,-18.14382 26.93571,-34.29235 0,-5.92544 -0.86364,-9.75982 -3.67954,-16.33628 -1.21305,-2.83313 -2.20557,-5.61976 -2.20557,-6.19255 0,-2.68721 3.54482,-4.14474 5.43766,-2.23579 1.47409,1.48661 5.47485,11.46506 6.42838,16.03318 1.26048,6.03876 0.95743,14.40074 -0.72659,20.04935 -4.29932,14.42085 -15.12614,25.09528 -29.73065,29.31219 -4.29252,1.23941 -13.48154,1.69543 -18.34738,0.91045 -9.35214,-1.50864 -17.51327,-5.93664 -24.43046,-13.25528 -6.16419,-6.52191 -9.93158,-14.67099 -11.04381,-23.88838 -0.90057,-7.46313 0.17255,-13.86342 3.83308,-22.86141 3.06769,-7.5408 4.45598,-12.00597 5.63937,-18.138242 1.05524,-5.468081 1.61236,-6.618969 3.73569,-7.716995 1.29562,-0.669975 1.91225,-0.687809 5.83601,-0.168519 6.22436,0.823813 12.83991,0.406086 17.29168,-1.091865 2.77037,-0.932196 7.65875,-3.065093 8.34146,-3.639512 0.17436,-0.146564 5.1005,-24.246543 5.1005,-24.952901 0,-0.561543 -3.5682,-0.653323 -25.39969,-0.653323 -20.86488,0 -25.35871,0.106741 -25.17016,0.598144 0.80862,2.107233 2.6205,8.320399 3.26051,11.180729 1.17711,5.260744 1.4377,18.237845 0.48111,23.95871 -0.99168,5.930694 -2.53008,11.172944 -4.96114,16.905684 -1.07836,2.54289 -2.31223,5.74385 -2.741935,7.11328 -0.42971,1.36942 -1.28324,2.94821 -1.89675,3.50841 -1.85205,1.69121 -4.134412,1.18107 -5.095368,-1.13886 -0.457321,-1.10412 -0.343694,-1.82921 0.800796,-5.11021 0.733562,-2.10293 2.151072,-5.78623 3.150032,-8.18515 3.836165,-9.21218 5.446465,-19.403542 4.566045,-28.898008 -0.2648,-2.855663 -0.59264,-5.372021 -0.72854,-5.591908 -0.13591,-0.219888 -5.467835,4.793357 -11.84876,11.140525 C 82.458711,93.36964 76.761883,98.706468 76.180017,98.882054 74.327018,99.441235 72.284876,98.736376 70.61352,96.960967 65.535626,91.566692 61.801828,84.629321 59.739937,76.75791 58.386681,71.591575 58.085987,62.253255 59.099428,56.866166 65.166045,24.618057 100.75776,7.875496 129.40576,23.793648 c 4.08733,2.271108 9.36975,6.610418 10.05188,8.257234 1.23976,2.993045 0.69433,3.80298 -9.1513,13.588926 l -9.15639,9.100883 17.47869,0.0043 17.47868,0.0043 0.98764,-5.092879 c 1.51319,-7.803104 2.5099,-10.748114 4.37517,-12.927275 1.36046,-1.589379 22.15668,-16.246047 26.34182,-18.56508 1.59501,-0.883799 3.6107,-0.275162 4.44743,1.342926 1.34823,2.6072 0.86745,3.074165 -12.72277,12.356797 -8.44639,5.769207 -12.89535,9.087381 -13.43533,10.020483 -0.58841,1.016831 -3.07648,11.274469 -3.07648,12.683597 0,0.08064 6.84036,0.205463 15.20077,0.27725 l 15.20076,0.130656 1.54917,1.690987 c 1.87026,2.041439 2.02525,4.015742 0.62341,7.940215 -2.25148,6.303006 -3.20591,11.462296 -3.45241,18.66263 -0.36905,10.780297 1.10191,18.036832 5.87381,28.976262 3.6334,8.32954 4.8808,13.63182 5.1644,21.95262 0.17498,5.13318 0.0495,7.83583 -0.5145,11.07347 -2.10516,12.08633 -7.775,22.61694 -16.82779,31.25407 -6.75554,6.44539 -14.62549,10.96545 -23.27031,13.36517 -2.36538,0.65659 -4.55532,1.27296 -4.86656,1.36967 -0.4407,0.13707 -0.56431,4.25895 -0.55894,18.63768 0.003,10.15399 0.15662,18.68702 0.33954,18.96231 0.18292,0.27531 5.11991,2.96031 10.97107,5.96664 11.12663,5.7169 12.21538,6.54427 12.22055,9.28668 10e-4,0.69705 -0.30663,1.86497 -0.68435,2.59534 -1.43952,2.78374 -0.46012,2.70419 -32.90386,2.6727 -16.25867,-0.0159 -29.99143,-0.20252 -30.51727,-0.41498 z m 44.53259,-10.23868 c -8.07775,-4.10765 -9.32474,-5.1481 -10.25603,-8.55745 -0.31929,-1.16897 -0.49551,-8.26933 -0.49714,-20.03201 l -0.001,-18.22123 h -3.39526 -3.39526 v 19.09688 c 0,24.51234 1.0577,21.83456 -11.09118,28.07912 l -6.79051,3.49031 21.50331,-8.8e-4 21.50331,-9.1e-4 -7.5787,-3.85388 z M 86.710179,79.68397 98.439255,67.948377 96.892695,67.688218 c -2.1946,-0.369206 -29.724645,-3.430722 -30.849875,-3.430722 -0.895687,0 -0.922866,0.176444 -0.679943,4.413834 0.393411,6.86243 2.969981,14.026674 7.245057,20.145208 1.000323,1.431654 1.943508,2.603024 2.095965,2.603024 0.152463,0 5.555286,-5.281019 12.00628,-11.735592 z m 9.314986,-19.391223 c 0,-0.188722 -4.766639,-5.106558 -10.59254,-10.9285 L 74.840081,38.778896 72.748525,41.620085 c -1.150355,1.562635 -2.809887,4.354912 -3.687848,6.205033 -1.576302,3.321735 -3.314786,8.939061 -2.896102,9.357728 0.23368,0.233694 25.972322,3.317974 28.38932,3.401938 0.8092,0.02799 1.47127,-0.103388 1.47127,-0.292037 z m 5.285715,-7.013258 c -0.13611,-0.809205 -0.9092,-7.429956 -1.717995,-14.712781 -1.02773,-9.254149 -1.63561,-13.241507 -2.01874,-13.241507 -2.66528,0 -11.570883,3.998016 -15.756801,7.073738 l -2.211245,1.624798 10.356176,10.363504 c 5.69589,5.699958 10.635145,10.36354 10.976125,10.36354 0.44839,0 0.55146,-0.407162 0.37248,-1.471292 z m 20.68917,-8.885374 10.34932,-10.356658 -2.43074,-1.817625 c -5.52275,-4.129745 -13.74889,-7.148389 -20.85476,-7.652773 l -3.98469,-0.282845 v 1.38986 c 0,1.235699 2.28912,22.220484 2.96192,27.152713 0.255,1.869224 0.31011,1.923994 1.93605,1.923994 1.57928,0 2.2567,-0.583561 12.0229,-10.356666 z"
       id="path1145"
       inkscape:export-filename="/Users/johanforsell/Developer/Cocktails/cocktail.png"
       inkscape:export-xdpi="96"
       inkscape:export-ydpi="96" />
    <text
       xml:space="preserve"
       style="font-style:normal;font-weight:normal;font-size:211.667px;line-height:1.25;font-family:sans-serif;fill:#1b998b;fill-opacity:1;stroke:none;stroke-width:0.264583"
       x="222.0602"
       y="237.62376"
       id="text2043"><tspan
         sodipodi:role="line"
         id="tspan2041"
         style="font-style:normal;font-variant:normal;font-weight:normal;font-stretch:normal;font-size:211.667px;font-family:Noteworthy;-inkscape-font-specification:Noteworthy;fill:#1b998b;fill-opacity:1;stroke-width:0.264583"
         x="222.0602"
         y="237.62376">Cocktails</tspan></text>
  </g>
</svg>
